<svg width="354" height="80" viewBox="0 0 354 80" fill="none" xmlns="http://www.w3.org/2000/svg">
<path d="M179.912 32.38H177.128V40H175.97V32.38H173.18V31.402H179.912V32.38ZM184.506 39.076C184.862 39.076 185.18 39.016 185.46 38.896C185.74 38.776 185.976 38.608 186.168 38.392C186.364 38.176 186.512 37.918 186.612 37.618C186.716 37.318 186.768 36.988 186.768 36.628V31.402H187.926V36.628C187.926 37.124 187.846 37.584 187.686 38.008C187.53 38.432 187.304 38.8 187.008 39.112C186.716 39.42 186.358 39.662 185.934 39.838C185.51 40.014 185.034 40.102 184.506 40.102C183.978 40.102 183.502 40.014 183.078 39.838C182.654 39.662 182.294 39.42 181.998 39.112C181.702 38.8 181.474 38.432 181.314 38.008C181.158 37.584 181.08 37.124 181.08 36.628V31.402H182.238V36.622C182.238 36.982 182.288 37.312 182.388 37.612C182.492 37.912 182.64 38.17 182.832 38.386C183.028 38.602 183.266 38.772 183.546 38.896C183.83 39.016 184.15 39.076 184.506 39.076ZM192.394 35.566C192.73 35.566 193.026 35.526 193.282 35.446C193.542 35.362 193.758 35.246 193.93 35.098C194.106 34.946 194.238 34.766 194.326 34.558C194.414 34.35 194.458 34.12 194.458 33.868C194.458 33.356 194.29 32.97 193.954 32.71C193.618 32.45 193.114 32.32 192.442 32.32H191.17V35.566H192.394ZM196.366 40H195.334C195.122 40 194.966 39.918 194.866 39.754L192.634 36.682C192.566 36.586 192.492 36.518 192.412 36.478C192.336 36.434 192.216 36.412 192.052 36.412H191.17V40H190.012V31.402H192.442C192.986 31.402 193.456 31.458 193.852 31.57C194.248 31.678 194.574 31.836 194.83 32.044C195.09 32.252 195.282 32.504 195.406 32.8C195.53 33.092 195.592 33.42 195.592 33.784C195.592 34.088 195.544 34.372 195.448 34.636C195.352 34.9 195.212 35.138 195.028 35.35C194.848 35.558 194.626 35.736 194.362 35.884C194.102 36.032 193.806 36.144 193.474 36.22C193.622 36.304 193.75 36.426 193.858 36.586L196.366 40ZM206.482 31.402V40H205.462V33.682C205.462 33.598 205.464 33.508 205.468 33.412C205.476 33.316 205.484 33.218 205.492 33.118L202.54 38.494C202.448 38.674 202.308 38.764 202.12 38.764H201.952C201.764 38.764 201.624 38.674 201.532 38.494L198.52 33.094C198.544 33.306 198.556 33.502 198.556 33.682V40H197.536V31.402H198.394C198.498 31.402 198.578 31.412 198.634 31.432C198.69 31.452 198.744 31.508 198.796 31.6L201.766 36.892C201.814 36.988 201.86 37.088 201.904 37.192C201.952 37.296 201.996 37.402 202.036 37.51C202.076 37.402 202.118 37.296 202.162 37.192C202.206 37.084 202.254 36.982 202.306 36.886L205.222 31.6C205.27 31.508 205.322 31.452 205.378 31.432C205.438 31.412 205.52 31.402 205.624 31.402H206.482ZM213.246 36.808L211.896 33.31C211.856 33.206 211.814 33.086 211.77 32.95C211.726 32.81 211.684 32.662 211.644 32.506C211.56 32.83 211.474 33.1 211.386 33.316L210.036 36.808H213.246ZM215.67 40H214.77C214.666 40 214.582 39.974 214.518 39.922C214.454 39.87 214.406 39.804 214.374 39.724L213.57 37.648H209.712L208.908 39.724C208.884 39.796 208.838 39.86 208.77 39.916C208.702 39.972 208.618 40 208.518 40H207.618L211.056 31.402H212.232L215.67 40ZM226.925 35.704C226.925 36.348 226.823 36.934 226.619 37.462C226.415 37.99 226.127 38.442 225.755 38.818C225.383 39.194 224.935 39.486 224.411 39.694C223.891 39.898 223.315 40 222.683 40H219.473V31.402H222.683C223.315 31.402 223.891 31.506 224.411 31.714C224.935 31.918 225.383 32.21 225.755 32.59C226.127 32.966 226.415 33.418 226.619 33.946C226.823 34.474 226.925 35.06 226.925 35.704ZM225.731 35.704C225.731 35.176 225.659 34.704 225.515 34.288C225.371 33.872 225.167 33.52 224.903 33.232C224.639 32.944 224.319 32.724 223.943 32.572C223.567 32.42 223.147 32.344 222.683 32.344H220.637V39.058H222.683C223.147 39.058 223.567 38.982 223.943 38.83C224.319 38.678 224.639 38.46 224.903 38.176C225.167 37.888 225.371 37.536 225.515 37.12C225.659 36.704 225.731 36.232 225.731 35.704ZM233.906 39.052L233.9 40H228.602V31.402H233.9V32.35H229.766V35.206H233.114V36.118H229.766V39.052H233.906ZM246.05 35.704C246.05 36.348 245.948 36.934 245.744 37.462C245.54 37.99 245.252 38.442 244.88 38.818C244.508 39.194 244.06 39.486 243.536 39.694C243.016 39.898 242.44 40 241.808 40H238.598V31.402H241.808C242.44 31.402 243.016 31.506 243.536 31.714C244.06 31.918 244.508 32.21 244.88 32.59C245.252 32.966 245.54 33.418 245.744 33.946C245.948 34.474 246.05 35.06 246.05 35.704ZM244.856 35.704C244.856 35.176 244.784 34.704 244.64 34.288C244.496 33.872 244.292 33.52 244.028 33.232C243.764 32.944 243.444 32.724 243.068 32.572C242.692 32.42 242.272 32.344 241.808 32.344H239.762V39.058H241.808C242.272 39.058 242.692 38.982 243.068 38.83C243.444 38.678 243.764 38.46 244.028 38.176C244.292 37.888 244.496 37.536 244.64 37.12C244.784 36.704 244.856 36.232 244.856 35.704ZM253.031 39.052L253.025 40H247.727V31.402H253.025V32.35H248.891V35.206H252.239V36.118H248.891V39.052H253.031ZM259.051 32.746C259.015 32.806 258.975 32.852 258.931 32.884C258.891 32.912 258.841 32.926 258.781 32.926C258.713 32.926 258.633 32.892 258.541 32.824C258.449 32.756 258.333 32.682 258.193 32.602C258.057 32.518 257.891 32.442 257.695 32.374C257.503 32.306 257.269 32.272 256.993 32.272C256.733 32.272 256.503 32.308 256.303 32.38C256.107 32.448 255.941 32.542 255.805 32.662C255.673 32.782 255.573 32.924 255.505 33.088C255.437 33.248 255.403 33.422 255.403 33.61C255.403 33.85 255.461 34.05 255.577 34.21C255.697 34.366 255.853 34.5 256.045 34.612C256.241 34.724 256.461 34.822 256.705 34.906C256.953 34.986 257.205 35.07 257.461 35.158C257.721 35.246 257.973 35.346 258.217 35.458C258.465 35.566 258.685 35.704 258.877 35.872C259.073 36.04 259.229 36.246 259.345 36.49C259.465 36.734 259.525 37.034 259.525 37.39C259.525 37.766 259.461 38.12 259.333 38.452C259.205 38.78 259.017 39.066 258.769 39.31C258.525 39.554 258.223 39.746 257.863 39.886C257.507 40.026 257.101 40.096 256.645 40.096C256.085 40.096 255.577 39.996 255.121 39.796C254.665 39.592 254.275 39.318 253.951 38.974L254.287 38.422C254.319 38.378 254.357 38.342 254.401 38.314C254.449 38.282 254.501 38.266 254.557 38.266C254.609 38.266 254.667 38.288 254.731 38.332C254.799 38.372 254.875 38.424 254.959 38.488C255.043 38.552 255.139 38.622 255.247 38.698C255.355 38.774 255.477 38.844 255.613 38.908C255.753 38.972 255.911 39.026 256.087 39.07C256.263 39.11 256.461 39.13 256.681 39.13C256.957 39.13 257.203 39.092 257.419 39.016C257.635 38.94 257.817 38.834 257.965 38.698C258.117 38.558 258.233 38.392 258.313 38.2C258.393 38.008 258.433 37.794 258.433 37.558C258.433 37.298 258.373 37.086 258.253 36.922C258.137 36.754 257.983 36.614 257.791 36.502C257.599 36.39 257.379 36.296 257.131 36.22C256.883 36.14 256.631 36.06 256.375 35.98C256.119 35.896 255.867 35.8 255.619 35.692C255.371 35.584 255.151 35.444 254.959 35.272C254.767 35.1 254.611 34.886 254.491 34.63C254.375 34.37 254.317 34.05 254.317 33.67C254.317 33.366 254.375 33.072 254.491 32.788C254.611 32.504 254.783 32.252 255.007 32.032C255.235 31.812 255.513 31.636 255.841 31.504C256.173 31.372 256.553 31.306 256.981 31.306C257.461 31.306 257.897 31.382 258.289 31.534C258.685 31.686 259.033 31.906 259.333 32.194L259.051 32.746ZM266.472 39.052L266.466 40H261.168V31.402H266.466V32.35H262.332V35.206H265.68V36.118H262.332V39.052H266.472ZM275.06 31.402V40H274.478C274.386 40 274.308 39.984 274.244 39.952C274.184 39.92 274.124 39.866 274.064 39.79L269.09 33.31C269.098 33.41 269.104 33.508 269.108 33.604C269.112 33.7 269.114 33.79 269.114 33.874V40H268.094V31.402H268.694C268.746 31.402 268.79 31.406 268.826 31.414C268.862 31.418 268.894 31.428 268.922 31.444C268.95 31.456 268.978 31.476 269.006 31.504C269.034 31.528 269.064 31.56 269.096 31.6L274.07 38.074C274.062 37.97 274.054 37.87 274.046 37.774C274.042 37.674 274.04 37.58 274.04 37.492V31.402H275.06ZM284.248 31.402L280.744 40H279.7L276.196 31.402H277.126C277.23 31.402 277.314 31.428 277.378 31.48C277.442 31.532 277.49 31.598 277.522 31.678L279.946 37.744C279.998 37.88 280.048 38.028 280.096 38.188C280.148 38.348 280.194 38.516 280.234 38.692C280.274 38.516 280.316 38.348 280.36 38.188C280.404 38.028 280.452 37.88 280.504 37.744L282.922 31.678C282.946 31.61 282.992 31.548 283.06 31.492C283.132 31.432 283.218 31.402 283.318 31.402H284.248ZM293.089 35.704C293.089 36.348 292.987 36.94 292.783 37.48C292.579 38.016 292.291 38.478 291.919 38.866C291.547 39.254 291.099 39.556 290.575 39.772C290.055 39.984 289.479 40.09 288.847 40.09C288.215 40.09 287.639 39.984 287.119 39.772C286.599 39.556 286.153 39.254 285.781 38.866C285.409 38.478 285.121 38.016 284.917 37.48C284.713 36.94 284.611 36.348 284.611 35.704C284.611 35.06 284.713 34.47 284.917 33.934C285.121 33.394 285.409 32.93 285.781 32.542C286.153 32.15 286.599 31.846 287.119 31.63C287.639 31.414 288.215 31.306 288.847 31.306C289.479 31.306 290.055 31.414 290.575 31.63C291.099 31.846 291.547 32.15 291.919 32.542C292.291 32.93 292.579 33.394 292.783 33.934C292.987 34.47 293.089 35.06 293.089 35.704ZM291.895 35.704C291.895 35.176 291.823 34.702 291.679 34.282C291.535 33.862 291.331 33.508 291.067 33.22C290.803 32.928 290.483 32.704 290.107 32.548C289.731 32.392 289.311 32.314 288.847 32.314C288.387 32.314 287.969 32.392 287.593 32.548C287.217 32.704 286.895 32.928 286.627 33.22C286.363 33.508 286.159 33.862 286.015 34.282C285.871 34.702 285.799 35.176 285.799 35.704C285.799 36.232 285.871 36.706 286.015 37.126C286.159 37.542 286.363 37.896 286.627 38.188C286.895 38.476 287.217 38.698 287.593 38.854C287.969 39.006 288.387 39.082 288.847 39.082C289.311 39.082 289.731 39.006 290.107 38.854C290.483 38.698 290.803 38.476 291.067 38.188C291.331 37.896 291.535 37.542 291.679 37.126C291.823 36.706 291.895 36.232 291.895 35.704ZM299.632 39.022V40H294.754V31.402H295.912V39.022H299.632ZM306.854 31.402L303.35 40H302.306L298.802 31.402H299.732C299.836 31.402 299.92 31.428 299.984 31.48C300.048 31.532 300.096 31.598 300.128 31.678L302.552 37.744C302.604 37.88 302.654 38.028 302.702 38.188C302.754 38.348 302.8 38.516 302.84 38.692C302.88 38.516 302.922 38.348 302.966 38.188C303.01 38.028 303.058 37.88 303.11 37.744L305.528 31.678C305.552 31.61 305.598 31.548 305.666 31.492C305.738 31.432 305.824 31.402 305.924 31.402H306.854ZM309.149 40H307.985V31.402H309.149V40ZM320.294 31.402V40H319.274V33.682C319.274 33.598 319.276 33.508 319.28 33.412C319.288 33.316 319.296 33.218 319.304 33.118L316.352 38.494C316.26 38.674 316.12 38.764 315.932 38.764H315.764C315.576 38.764 315.436 38.674 315.344 38.494L312.332 33.094C312.356 33.306 312.368 33.502 312.368 33.682V40H311.348V31.402H312.206C312.31 31.402 312.39 31.412 312.446 31.432C312.502 31.452 312.556 31.508 312.608 31.6L315.578 36.892C315.626 36.988 315.672 37.088 315.716 37.192C315.764 37.296 315.808 37.402 315.848 37.51C315.888 37.402 315.93 37.296 315.974 37.192C316.018 37.084 316.066 36.982 316.118 36.886L319.034 31.6C319.082 31.508 319.134 31.452 319.19 31.432C319.25 31.412 319.332 31.402 319.436 31.402H320.294ZM327.797 39.052L327.791 40H322.493V31.402H327.791V32.35H323.657V35.206H327.005V36.118H323.657V39.052H327.797ZM336.384 31.402V40H335.802C335.71 40 335.632 39.984 335.568 39.952C335.508 39.92 335.448 39.866 335.388 39.79L330.414 33.31C330.422 33.41 330.428 33.508 330.432 33.604C330.436 33.7 330.438 33.79 330.438 33.874V40H329.418V31.402H330.018C330.07 31.402 330.114 31.406 330.15 31.414C330.186 31.418 330.218 31.428 330.246 31.444C330.274 31.456 330.302 31.476 330.33 31.504C330.358 31.528 330.388 31.56 330.42 31.6L335.394 38.074C335.386 37.97 335.378 37.87 335.37 37.774C335.366 37.674 335.364 37.58 335.364 37.492V31.402H336.384ZM344.396 32.38H341.612V40H340.454V32.38H337.664V31.402H344.396V32.38ZM353.23 35.704C353.23 36.348 353.128 36.94 352.924 37.48C352.72 38.016 352.432 38.478 352.06 38.866C351.688 39.254 351.24 39.556 350.716 39.772C350.196 39.984 349.62 40.09 348.988 40.09C348.356 40.09 347.78 39.984 347.26 39.772C346.74 39.556 346.294 39.254 345.922 38.866C345.55 38.478 345.262 38.016 345.058 37.48C344.854 36.94 344.752 36.348 344.752 35.704C344.752 35.06 344.854 34.47 345.058 33.934C345.262 33.394 345.55 32.93 345.922 32.542C346.294 32.15 346.74 31.846 347.26 31.63C347.78 31.414 348.356 31.306 348.988 31.306C349.62 31.306 350.196 31.414 350.716 31.63C351.24 31.846 351.688 32.15 352.06 32.542C352.432 32.93 352.72 33.394 352.924 33.934C353.128 34.47 353.23 35.06 353.23 35.704ZM352.036 35.704C352.036 35.176 351.964 34.702 351.82 34.282C351.676 33.862 351.472 33.508 351.208 33.22C350.944 32.928 350.624 32.704 350.247 32.548C349.872 32.392 349.452 32.314 348.988 32.314C348.528 32.314 348.11 32.392 347.734 32.548C347.358 32.704 347.036 32.928 346.768 33.22C346.504 33.508 346.3 33.862 346.156 34.282C346.012 34.702 345.94 35.176 345.94 35.704C345.94 36.232 346.012 36.706 346.156 37.126C346.3 37.542 346.504 37.896 346.768 38.188C347.036 38.476 347.358 38.698 347.734 38.854C348.11 39.006 348.528 39.082 348.988 39.082C349.452 39.082 349.872 39.006 350.247 38.854C350.624 38.698 350.944 38.476 351.208 38.188C351.472 37.896 351.676 37.542 351.82 37.126C351.964 36.706 352.036 36.232 352.036 35.704ZM185.24 45.402L182.558 54H181.514L179.336 47.442C179.316 47.378 179.296 47.31 179.276 47.238C179.26 47.166 179.242 47.09 179.222 47.01C179.202 47.09 179.182 47.166 179.162 47.238C179.142 47.31 179.122 47.378 179.102 47.442L176.912 54H175.868L173.186 45.402H174.152C174.256 45.402 174.342 45.428 174.41 45.48C174.482 45.532 174.528 45.598 174.548 45.678L176.324 51.654C176.352 51.762 176.378 51.878 176.402 52.002C176.43 52.126 176.456 52.258 176.48 52.398C176.508 52.258 176.536 52.126 176.564 52.002C176.596 51.874 176.63 51.758 176.666 51.654L178.688 45.678C178.712 45.61 178.758 45.548 178.826 45.492C178.898 45.432 178.984 45.402 179.084 45.402H179.42C179.524 45.402 179.608 45.428 179.672 45.48C179.736 45.532 179.784 45.598 179.816 45.678L181.832 51.654C181.868 51.758 181.9 51.87 181.928 51.99C181.96 52.11 181.99 52.236 182.018 52.368C182.038 52.236 182.06 52.11 182.084 51.99C182.108 51.87 182.134 51.758 182.162 51.654L183.944 45.678C183.964 45.606 184.008 45.542 184.076 45.486C184.148 45.43 184.234 45.402 184.334 45.402H185.24ZM191.824 53.052L191.818 54H186.52V45.402H191.818V46.35H187.684V49.206H191.032V50.118H187.684V53.052H191.824ZM196.464 53.076C196.796 53.076 197.082 53.038 197.322 52.962C197.562 52.886 197.758 52.78 197.91 52.644C198.066 52.504 198.18 52.34 198.252 52.152C198.324 51.96 198.36 51.75 198.36 51.522C198.36 51.078 198.202 50.728 197.886 50.472C197.57 50.212 197.096 50.082 196.464 50.082H194.604V53.076H196.464ZM194.604 46.32V49.254H196.14C196.468 49.254 196.752 49.218 196.992 49.146C197.236 49.074 197.436 48.974 197.592 48.846C197.752 48.718 197.87 48.564 197.946 48.384C198.022 48.2 198.06 48 198.06 47.784C198.06 47.276 197.908 46.906 197.604 46.674C197.3 46.438 196.828 46.32 196.188 46.32H194.604ZM196.188 45.402C196.716 45.402 197.17 45.454 197.55 45.558C197.934 45.662 198.248 45.81 198.492 46.002C198.74 46.194 198.922 46.43 199.038 46.71C199.154 46.986 199.212 47.298 199.212 47.646C199.212 47.858 199.178 48.062 199.11 48.258C199.046 48.45 198.948 48.63 198.816 48.798C198.684 48.966 198.516 49.118 198.312 49.254C198.112 49.386 197.876 49.494 197.604 49.578C198.236 49.698 198.71 49.924 199.026 50.256C199.346 50.584 199.506 51.016 199.506 51.552C199.506 51.916 199.438 52.248 199.302 52.548C199.17 52.848 198.974 53.106 198.714 53.322C198.458 53.538 198.142 53.706 197.766 53.826C197.39 53.942 196.962 54 196.482 54H193.446V45.402H196.188ZM205.438 46.35V49.356H208.972V50.304H205.438V54H204.274V45.402H209.572V46.35H205.438ZM214.377 53.076C214.733 53.076 215.051 53.016 215.331 52.896C215.611 52.776 215.847 52.608 216.039 52.392C216.235 52.176 216.383 51.918 216.483 51.618C216.587 51.318 216.639 50.988 216.639 50.628V45.402H217.797V50.628C217.797 51.124 217.717 51.584 217.557 52.008C217.401 52.432 217.175 52.8 216.879 53.112C216.587 53.42 216.229 53.662 215.805 53.838C215.381 54.014 214.905 54.102 214.377 54.102C213.849 54.102 213.373 54.014 212.949 53.838C212.525 53.662 212.165 53.42 211.869 53.112C211.573 52.8 211.345 52.432 211.185 52.008C211.029 51.584 210.951 51.124 210.951 50.628V45.402H212.109V50.622C212.109 50.982 212.159 51.312 212.259 51.612C212.363 51.912 212.511 52.17 212.703 52.386C212.899 52.602 213.137 52.772 213.417 52.896C213.701 53.016 214.021 53.076 214.377 53.076ZM224.761 53.022V54H219.883V45.402H221.041V53.022H224.761ZM230.925 53.022V54H226.047V45.402H227.205V53.022H230.925ZM239.316 46.746C239.28 46.806 239.24 46.852 239.196 46.884C239.156 46.912 239.106 46.926 239.046 46.926C238.978 46.926 238.898 46.892 238.806 46.824C238.714 46.756 238.598 46.682 238.458 46.602C238.322 46.518 238.156 46.442 237.96 46.374C237.768 46.306 237.534 46.272 237.258 46.272C236.998 46.272 236.768 46.308 236.568 46.38C236.372 46.448 236.206 46.542 236.07 46.662C235.938 46.782 235.838 46.924 235.77 47.088C235.702 47.248 235.668 47.422 235.668 47.61C235.668 47.85 235.726 48.05 235.842 48.21C235.962 48.366 236.118 48.5 236.31 48.612C236.506 48.724 236.726 48.822 236.97 48.906C237.218 48.986 237.47 49.07 237.726 49.158C237.986 49.246 238.238 49.346 238.482 49.458C238.73 49.566 238.95 49.704 239.142 49.872C239.338 50.04 239.494 50.246 239.61 50.49C239.73 50.734 239.79 51.034 239.79 51.39C239.79 51.766 239.726 52.12 239.598 52.452C239.47 52.78 239.282 53.066 239.034 53.31C238.79 53.554 238.488 53.746 238.128 53.886C237.772 54.026 237.366 54.096 236.91 54.096C236.35 54.096 235.842 53.996 235.386 53.796C234.93 53.592 234.54 53.318 234.216 52.974L234.552 52.422C234.584 52.378 234.622 52.342 234.666 52.314C234.714 52.282 234.766 52.266 234.822 52.266C234.874 52.266 234.932 52.288 234.996 52.332C235.064 52.372 235.14 52.424 235.224 52.488C235.308 52.552 235.404 52.622 235.512 52.698C235.62 52.774 235.742 52.844 235.878 52.908C236.018 52.972 236.176 53.026 236.352 53.07C236.528 53.11 236.726 53.13 236.946 53.13C237.222 53.13 237.468 53.092 237.684 53.016C237.9 52.94 238.082 52.834 238.23 52.698C238.382 52.558 238.498 52.392 238.578 52.2C238.658 52.008 238.698 51.794 238.698 51.558C238.698 51.298 238.638 51.086 238.518 50.922C238.402 50.754 238.248 50.614 238.056 50.502C237.864 50.39 237.644 50.296 237.396 50.22C237.148 50.14 236.896 50.06 236.64 49.98C236.384 49.896 236.132 49.8 235.884 49.692C235.636 49.584 235.416 49.444 235.224 49.272C235.032 49.1 234.876 48.886 234.756 48.63C234.64 48.37 234.582 48.05 234.582 47.67C234.582 47.366 234.64 47.072 234.756 46.788C234.876 46.504 235.048 46.252 235.272 46.032C235.5 45.812 235.778 45.636 236.106 45.504C236.438 45.372 236.818 45.306 237.246 45.306C237.726 45.306 238.162 45.382 238.554 45.534C238.95 45.686 239.298 45.906 239.598 46.194L239.316 46.746ZM247.248 46.38H244.464V54H243.306V46.38H240.516V45.402H247.248V46.38ZM252.246 50.808L250.896 47.31C250.856 47.206 250.814 47.086 250.77 46.95C250.726 46.81 250.684 46.662 250.644 46.506C250.56 46.83 250.474 47.1 250.386 47.316L249.036 50.808H252.246ZM254.67 54H253.77C253.666 54 253.582 53.974 253.518 53.922C253.454 53.87 253.406 53.804 253.374 53.724L252.57 51.648H248.712L247.908 53.724C247.884 53.796 247.838 53.86 247.77 53.916C247.702 53.972 247.618 54 247.518 54H246.618L250.056 45.402H251.232L254.67 54ZM261.614 52.224C261.678 52.224 261.734 52.25 261.782 52.302L262.244 52.8C261.892 53.208 261.464 53.526 260.96 53.754C260.46 53.982 259.854 54.096 259.142 54.096C258.526 54.096 257.966 53.99 257.462 53.778C256.958 53.562 256.528 53.262 256.172 52.878C255.816 52.49 255.54 52.026 255.344 51.486C255.148 50.946 255.05 50.352 255.05 49.704C255.05 49.056 255.152 48.462 255.356 47.922C255.56 47.382 255.846 46.918 256.214 46.53C256.586 46.142 257.03 45.842 257.546 45.63C258.062 45.414 258.632 45.306 259.256 45.306C259.868 45.306 260.408 45.404 260.876 45.6C261.344 45.796 261.756 46.062 262.112 46.398L261.728 46.932C261.704 46.972 261.672 47.006 261.632 47.034C261.596 47.058 261.546 47.07 261.482 47.07C261.41 47.07 261.322 47.032 261.218 46.956C261.114 46.876 260.978 46.788 260.81 46.692C260.642 46.596 260.432 46.51 260.18 46.434C259.928 46.354 259.618 46.314 259.25 46.314C258.806 46.314 258.4 46.392 258.032 46.548C257.664 46.7 257.346 46.922 257.078 47.214C256.814 47.506 256.608 47.862 256.46 48.282C256.312 48.702 256.238 49.176 256.238 49.704C256.238 50.24 256.314 50.718 256.466 51.138C256.622 51.558 256.832 51.914 257.096 52.206C257.364 52.494 257.678 52.714 258.038 52.866C258.402 53.018 258.794 53.094 259.214 53.094C259.47 53.094 259.7 53.08 259.904 53.052C260.112 53.02 260.302 52.972 260.474 52.908C260.65 52.844 260.812 52.764 260.96 52.668C261.112 52.568 261.262 52.45 261.41 52.314C261.478 52.254 261.546 52.224 261.614 52.224ZM264.752 49.17H265.19C265.342 49.17 265.464 49.152 265.556 49.116C265.648 49.076 265.732 49.01 265.808 48.918L268.67 45.678C268.75 45.574 268.834 45.502 268.922 45.462C269.01 45.422 269.118 45.402 269.246 45.402H270.23L266.954 49.104C266.874 49.2 266.796 49.28 266.72 49.344C266.648 49.404 266.57 49.454 266.486 49.494C266.594 49.53 266.692 49.584 266.78 49.656C266.868 49.724 266.954 49.814 267.038 49.926L270.458 54H269.45C269.374 54 269.308 53.996 269.252 53.988C269.2 53.976 269.154 53.96 269.114 53.94C269.074 53.916 269.038 53.89 269.006 53.862C268.978 53.83 268.95 53.794 268.922 53.754L265.958 50.34C265.878 50.24 265.792 50.17 265.7 50.13C265.608 50.086 265.468 50.064 265.28 50.064H264.752V54H263.594V45.402H264.752V49.17Z" fill="#444444"/>
<line x1="161" y1="27" x2="161" y2="56" stroke="#444444" stroke-width="2"/>
<path d="M9.55078 56H3.59375V27.4453H19.9609V32.4062H9.55078V39.7695H19.2383V44.7109H9.55078V56ZM42.4023 48.0703C42.4023 49.763 41.9922 51.2344 41.1719 52.4844C40.3516 53.7344 39.1536 54.6979 37.5781 55.375C36.0156 56.0521 34.1146 56.3906 31.875 56.3906C30.8854 56.3906 29.9154 56.3255 28.9648 56.1953C28.0273 56.0651 27.1224 55.8763 26.25 55.6289C25.3906 55.3685 24.5703 55.0495 23.7891 54.6719V49.0469C25.1432 49.6458 26.5495 50.1862 28.0078 50.668C29.4661 51.1497 30.9115 51.3906 32.3438 51.3906C33.3333 51.3906 34.1276 51.2604 34.7266 51C35.3385 50.7396 35.7812 50.3815 36.0547 49.9258C36.3281 49.4701 36.4648 48.9492 36.4648 48.3633C36.4648 47.6471 36.224 47.0352 35.7422 46.5273C35.2604 46.0195 34.5964 45.5443 33.75 45.1016C32.9167 44.6589 31.9727 44.1836 30.918 43.6758C30.2539 43.3633 29.5312 42.9857 28.75 42.543C27.9688 42.0872 27.2266 41.5339 26.5234 40.8828C25.8203 40.2318 25.2409 39.444 24.7852 38.5195C24.3424 37.582 24.1211 36.4622 24.1211 35.1602C24.1211 33.4544 24.5117 31.9961 25.293 30.7852C26.0742 29.5742 27.1875 28.6497 28.6328 28.0117C30.0911 27.3607 31.8099 27.0352 33.7891 27.0352C35.2734 27.0352 36.6862 27.2109 38.0273 27.5625C39.3815 27.901 40.7943 28.3958 42.2656 29.0469L40.3125 33.7539C38.9974 33.2201 37.819 32.8099 36.7773 32.5234C35.7357 32.224 34.6745 32.0742 33.5938 32.0742C32.8385 32.0742 32.194 32.1979 31.6602 32.4453C31.1263 32.6797 30.7227 33.0182 30.4492 33.4609C30.1758 33.8906 30.0391 34.3919 30.0391 34.9648C30.0391 35.6419 30.2344 36.2148 30.625 36.6836C31.0286 37.1393 31.6276 37.582 32.4219 38.0117C33.2292 38.4414 34.2318 38.9427 35.4297 39.5156C36.888 40.2057 38.1315 40.9284 39.1602 41.6836C40.2018 42.4258 41.0026 43.3047 41.5625 44.3203C42.1224 45.3229 42.4023 46.5729 42.4023 48.0703ZM64.4922 41.6445C64.4922 44.0273 64.3099 46.1367 63.9453 47.9727C63.5807 49.8086 63.0273 51.3516 62.2852 52.6016C61.543 53.8516 60.599 54.7956 59.4531 55.4336C58.3073 56.0716 56.9531 56.3906 55.3906 56.3906C53.4115 56.3906 51.7448 55.8372 50.3906 54.7305C49.0365 53.6237 48.0078 51.9766 47.3047 49.7891C46.6146 47.6016 46.2695 44.8867 46.2695 41.6445C46.2695 38.7539 46.5625 36.2083 47.1484 34.0078C47.7474 31.8073 48.7174 30.0885 50.0586 28.8516C51.3997 27.6146 53.1836 26.9961 55.4102 26.9961C57.6237 26.9961 59.3945 27.6016 60.7227 28.8125C62.0638 30.0234 63.0273 31.7292 63.6133 33.9297C64.1992 36.1172 64.4922 38.6888 64.4922 41.6445ZM48.2617 41.6445C48.2617 44.5742 48.5156 47.0026 49.0234 48.9297C49.5312 50.8438 50.3125 52.276 51.3672 53.2266C52.4219 54.1771 53.763 54.6523 55.3906 54.6523C57.0703 54.6523 58.431 54.1771 59.4727 53.2266C60.5143 52.276 61.276 50.8372 61.7578 48.9102C62.2526 46.9831 62.5 44.5612 62.5 41.6445C62.5 38.9622 62.2852 36.6576 61.8555 34.7305C61.4388 32.8034 60.7161 31.3255 59.6875 30.2969C58.6589 29.2682 57.2331 28.7539 55.4102 28.7539C53.6263 28.7539 52.2135 29.2812 51.1719 30.3359C50.1302 31.3906 49.3815 32.8815 48.9258 34.8086C48.4831 36.7357 48.2617 39.0143 48.2617 41.6445ZM78.2031 27.0352C79.8177 27.0352 81.2305 27.2956 82.4414 27.8164C83.6654 28.3372 84.6159 29.0924 85.293 30.082C85.9701 31.0716 86.3086 32.2695 86.3086 33.6758C86.3086 34.8346 86.0417 35.8503 85.5078 36.7227C84.987 37.5951 84.2643 38.3633 83.3398 39.0273C82.4154 39.6784 81.3411 40.2643 80.1172 40.7852C81.5495 41.332 82.7995 41.9635 83.8672 42.6797C84.9349 43.3958 85.7617 44.2422 86.3477 45.2188C86.9466 46.1953 87.2461 47.3542 87.2461 48.6953C87.2461 50.3099 86.849 51.6966 86.0547 52.8555C85.2604 54.0013 84.1797 54.8802 82.8125 55.4922C81.4453 56.0911 79.8828 56.3906 78.125 56.3906C76.3021 56.3906 74.7201 56.0846 73.3789 55.4727C72.0378 54.8607 70.9961 53.9948 70.2539 52.875C69.5247 51.7422 69.1602 50.4206 69.1602 48.9102C69.1602 47.5039 69.4531 46.2995 70.0391 45.2969C70.638 44.2812 71.4583 43.4154 72.5 42.6992C73.5417 41.9831 74.7266 41.3776 76.0547 40.8828C74.9609 40.401 73.9583 39.8477 73.0469 39.2227C72.1484 38.5977 71.4258 37.8424 70.8789 36.957C70.3451 36.0586 70.0781 34.9779 70.0781 33.7148C70.0781 32.3216 70.4232 31.1302 71.1133 30.1406C71.8164 29.151 72.7799 28.3893 74.0039 27.8555C75.2279 27.3086 76.6276 27.0352 78.2031 27.0352ZM71.1328 48.9102C71.1328 50.668 71.7513 52.0742 72.9883 53.1289C74.2253 54.1836 75.9245 54.7109 78.0859 54.7109C80.2474 54.7109 81.9857 54.1901 83.3008 53.1484C84.6159 52.1068 85.2734 50.6289 85.2734 48.7148C85.2734 47.6471 85.0195 46.7096 84.5117 45.9023C84.0169 45.0951 83.2878 44.3854 82.3242 43.7734C81.3737 43.1484 80.2148 42.5885 78.8477 42.0938L77.9102 41.7422C76.582 42.224 75.4102 42.7839 74.3945 43.4219C73.3789 44.0469 72.5781 44.8021 71.9922 45.6875C71.4193 46.5729 71.1328 47.6471 71.1328 48.9102ZM78.1836 28.7344C76.3997 28.7344 74.9284 29.1706 73.7695 30.043C72.6237 30.9154 72.0508 32.1589 72.0508 33.7734C72.0508 34.8542 72.3177 35.7721 72.8516 36.5273C73.3854 37.2826 74.1211 37.9336 75.0586 38.4805C76.0091 39.0143 77.0964 39.5091 78.3203 39.9648C79.5964 39.444 80.6771 38.8971 81.5625 38.3242C82.4609 37.7513 83.1445 37.0938 83.6133 36.3516C84.082 35.6094 84.3164 34.7305 84.3164 33.7148C84.3164 32.0742 83.7695 30.8372 82.6758 30.0039C81.582 29.1576 80.0846 28.7344 78.1836 28.7344ZM102.832 27.4453L92.168 56H90.1562L100.84 27.4453H102.832ZM123.398 56H105.527V54.3203L113.926 45.5703C115.267 44.1771 116.393 42.9206 117.305 41.8008C118.229 40.668 118.926 39.5352 119.395 38.4023C119.876 37.2695 120.117 36 120.117 34.5938C120.117 32.7578 119.577 31.332 118.496 30.3164C117.428 29.3008 115.977 28.793 114.141 28.793C112.904 28.793 111.712 29.0143 110.566 29.457C109.434 29.8997 108.327 30.5508 107.246 31.4102L106.152 30.0234C106.947 29.3724 107.78 28.8255 108.652 28.3828C109.538 27.9401 110.443 27.6081 111.367 27.3867C112.292 27.1523 113.216 27.0352 114.141 27.0352C115.768 27.0352 117.174 27.3477 118.359 27.9727C119.557 28.5846 120.488 29.4505 121.152 30.5703C121.816 31.6901 122.148 33.0052 122.148 34.5156C122.148 36.0781 121.875 37.4974 121.328 38.7734C120.794 40.0365 120.033 41.2734 119.043 42.4844C118.053 43.6953 116.882 44.9974 115.527 46.3906L108.086 54.0859V54.1641H123.398V56ZM146.25 56H128.379V54.3203L136.777 45.5703C138.118 44.1771 139.245 42.9206 140.156 41.8008C141.081 40.668 141.777 39.5352 142.246 38.4023C142.728 37.2695 142.969 36 142.969 34.5938C142.969 32.7578 142.428 31.332 141.348 30.3164C140.28 29.3008 138.828 28.793 136.992 28.793C135.755 28.793 134.564 29.0143 133.418 29.457C132.285 29.8997 131.178 30.5508 130.098 31.4102L129.004 30.0234C129.798 29.3724 130.632 28.8255 131.504 28.3828C132.389 27.9401 133.294 27.6081 134.219 27.3867C135.143 27.1523 136.068 27.0352 136.992 27.0352C138.62 27.0352 140.026 27.3477 141.211 27.9727C142.409 28.5846 143.34 29.4505 144.004 30.5703C144.668 31.6901 145 33.0052 145 34.5156C145 36.0781 144.727 37.4974 144.18 38.7734C143.646 40.0365 142.884 41.2734 141.895 42.4844C140.905 43.6953 139.733 44.9974 138.379 46.3906L130.938 54.0859V54.1641H146.25V56Z" fill="#1E1E1E"/>
</svg>
